<?xml version="1.0" standalone="no"?>
<!DOCTYPE svg PUBLIC "-//W3C//DTD SVG 20010904//EN"
 "http://www.w3.org/TR/2001/REC-SVG-20010904/DTD/svg10.dtd">
<svg version="1.0" xmlns="http://www.w3.org/2000/svg"
 width="181.000000pt" height="181.000000pt" viewBox="0 0 181.000000 181.000000"
 preserveAspectRatio="xMidYMid meet">
<metadata>
Created by potrace 1.14, written by Peter Selinger 2001-2017
</metadata>
<g transform="translate(0.000000,181.000000) scale(0.100000,-0.100000)"
fill="#000000" stroke="none">
<path d="M1323 1668 c-16 -12 -47 -46 -67 -75 -41 -58 -122 -113 -167 -113
-14 0 -61 9 -104 20 -92 24 -164 25 -260 4 -38 -8 -93 -17 -121 -21 -50 -5
-52 -5 -79 33 -41 55 -126 133 -154 141 -40 10 -125 -15 -153 -45 -65 -71 -71
-88 -65 -176 3 -44 16 -124 27 -176 36 -161 37 -173 4 -199 -23 -18 -36 -21
-64 -16 -104 18 -110 18 -111 -1 -11 -229 94 -480 274 -655 39 -38 73 -69 77
-69 4 0 20 -11 36 -25 16 -14 32 -25 37 -25 4 0 24 -10 45 -23 66 -41 185 -82
302 -103 68 -12 255 -5 311 12 9 2 22 23 29 47 27 92 45 114 123 150 39 19 97
42 128 50 64 19 108 47 197 125 77 68 82 58 6 -12 -51 -48 -55 -55 -52 -91 l3
-39 25 25 c102 98 199 275 230 424 23 105 23 104 -59 190 l-54 56 -24 -23
c-14 -13 -32 -36 -41 -53 l-15 -30 -13 30 c-7 17 -13 55 -14 86 0 66 -13 86
-80 122 -63 35 -67 44 -47 125 23 94 21 134 -7 196 -13 29 -30 71 -37 94 -17
59 -29 66 -66 40z"/>
</g>
</svg>
